<svg width="306" height="29" viewBox="0 0 306 29" fill="none" xmlns="http://www.w3.org/2000/svg">
<path d="M1.57062 25.82V27.64H16.6306V25.82H1.57062ZM0.610618 11.22V28.66H2.59062V13.02H16.2106V11.22H0.610618ZM1.63062 15.82V17.6H13.0506V23.8H15.0106V15.82H1.63062ZM1.57062 21.02V22.82H13.9706V21.02H1.57062ZM20.3906 16.9V18.58H27.6106V16.9H20.3906ZM23.7506 20.04V26.68C23.7506 26.9 23.6906 26.98 23.4106 27C23.1106 27 22.1906 27 21.2506 26.98C21.4906 27.46 21.7706 28.18 21.8506 28.7C23.1906 28.7 24.1506 28.7 24.7906 28.42C25.4506 28.14 25.6306 27.64 25.6306 26.72V20.04H23.7506ZM19.5106 21.98L19.7106 23.82C22.3506 23.6 26.1506 23.28 29.7106 22.94V21.2C26.0106 21.52 22.0906 21.82 19.5106 21.98ZM27.0906 16.9V17.26C26.4306 18.18 25.1106 19.52 24.0106 20.3C24.2706 20.52 24.7506 21 24.9706 21.3C26.3906 20.4 28.0106 19 29.1906 17.78L27.9906 16.8L27.5706 16.9H27.0906ZM28.3106 10.2C26.1906 10.82 22.5906 11.26 19.5506 11.48C19.7706 11.92 19.9906 12.6 20.0506 13.04C23.1506 12.88 26.9106 12.46 29.4506 11.76L28.3106 10.2ZM30.4506 10.52V25.42C30.4506 27.8 31.0106 28.5 32.9706 28.5C33.3706 28.5 35.2906 28.5 35.6906 28.5C37.6106 28.5 38.0706 27.2 38.2506 23.68C37.7306 23.54 36.9506 23.16 36.4906 22.8C36.3706 25.9 36.2706 26.7 35.5306 26.7C35.1106 26.7 33.5906 26.7 33.2706 26.7C32.5306 26.7 32.4106 26.52 32.4106 25.44V10.52H30.4506ZM19.8706 13.78C20.2706 14.68 20.6506 15.88 20.7506 16.66L22.2906 16.22C22.1506 15.44 21.7706 14.28 21.3106 13.4L19.8706 13.78ZM23.2906 13.24C23.5306 14.16 23.7306 15.38 23.7506 16.16L25.3706 15.88C25.3306 15.1 25.0906 13.92 24.8106 13.02L23.2906 13.24ZM28.0106 12.78C27.5706 13.9 26.7506 15.48 26.0906 16.44L27.5106 17.04C28.2106 16.12 29.0506 14.7 29.7506 13.44L28.0106 12.78ZM42.5106 13.38V15.56C43.0106 15.52 43.8306 15.48 44.2906 15.48H55.2306C55.8106 15.48 56.4706 15.52 57.0106 15.56V13.38C56.4906 13.44 55.8306 13.5 55.2306 13.5H44.2906C43.8106 13.5 43.0306 13.44 42.5106 13.38ZM48.5106 25.36H50.6906V14.62H48.5106V25.36ZM41.2706 24.1V26.38C41.8906 26.32 42.5506 26.3 43.1106 26.3H56.3106C56.7306 26.3 57.5106 26.3 58.0706 26.38V24.1C57.5506 24.16 56.9706 24.24 56.3106 24.24H43.1106C42.5306 24.24 41.8706 24.18 41.2706 24.1ZM63.2106 13.1C63.2506 13.62 63.2506 14.32 63.2506 14.82C63.2506 15.76 63.2506 23.66 63.2506 24.64C63.2506 25.46 63.1906 27.04 63.1906 27.24H65.3506C65.3506 27.04 65.3306 25.6 65.3306 24.8C65.3306 23.82 65.3306 15.14 65.3306 15.14H75.7106C75.7106 15.14 75.7106 23.88 75.7106 24.8C75.7106 25.76 75.6706 27.08 75.6706 27.24H77.8506C77.8306 27.08 77.8106 25.36 77.8106 24.66C77.8106 23.7 77.8106 15.88 77.8106 14.82C77.8106 14.28 77.8106 13.64 77.8506 13.1C77.1906 13.14 76.4506 13.14 75.9906 13.14C74.8106 13.14 66.3706 13.14 65.1306 13.14C64.6306 13.14 64.0106 13.12 63.2106 13.1ZM76.5106 24.12H64.2906V26.12H76.5106V24.12ZM86.1906 10.12C85.2706 12.08 83.6706 13.98 81.9706 15.18C82.4106 15.46 83.1706 16.08 83.5106 16.42C85.1906 15.06 86.9506 12.9 88.0506 10.66L86.1906 10.12ZM85.7306 12.34L85.1906 14.02H99.5106V12.34H85.7306ZM82.2906 17.04V18.74H100.251V17.04H82.2906ZM82.6106 21.78V23.48H99.9706V21.78H82.6106ZM88.6106 12.92V22.64H90.2306V12.92H88.6106ZM85.0506 12.92V22.68H86.7506V12.92H85.0506ZM92.1706 12.92V22.68H93.7706V12.92H92.1706ZM95.7706 12.92V22.68H97.5106V12.92H95.7706ZM88.0506 24.74C88.2906 25.96 88.4306 27.54 88.4506 28.5L90.3106 28.24C90.2906 27.3 90.0506 25.74 89.7906 24.56L88.0506 24.74ZM92.0906 24.76C92.5706 25.98 93.0506 27.56 93.2106 28.52L95.0906 28.14C94.9106 27.18 94.3706 25.62 93.8506 24.46L92.0906 24.76ZM96.1106 24.64C97.0706 25.9 98.1706 27.64 98.6506 28.72L100.551 28.06C100.031 26.96 98.8706 25.28 97.9106 24.06L96.1106 24.64ZM84.5106 24.14C84.0306 25.6 83.1106 27.14 82.1306 27.98L83.9306 28.72C84.9506 27.72 85.8506 26.1 86.3306 24.6L84.5106 24.14ZM106.071 10.2V28.66H107.811V10.2H106.071ZM102.931 16.82V18.58H110.951V16.82H102.931ZM105.771 17.76C105.151 19.94 103.831 22.86 102.591 24.38C102.891 24.9 103.311 25.72 103.491 26.3C104.831 24.42 106.171 20.96 106.851 18.26L105.771 17.76ZM107.791 18.78L106.891 19.54C107.571 20.46 109.071 22.92 109.591 24.02L110.791 22.52C110.351 21.9 108.351 19.36 107.791 18.78ZM102.991 11.72C103.491 13.14 103.931 15.04 103.991 16.26L105.451 15.88C105.331 14.66 104.891 12.78 104.351 11.36L102.991 11.72ZM109.511 11.28C109.251 12.66 108.711 14.66 108.291 15.9L109.491 16.26C110.011 15.12 110.631 13.22 111.131 11.66L109.511 11.28ZM117.191 10.12V28.68H118.971V10.12H117.191ZM110.911 22.76L111.211 24.52L121.491 22.66L121.191 20.92L110.911 22.76ZM112.251 12.7C113.411 13.42 114.791 14.5 115.411 15.28L116.411 13.84C115.751 13.1 114.351 12.08 113.211 11.4L112.251 12.7ZM111.291 17.74C112.471 18.4 113.931 19.46 114.611 20.18L115.571 18.68C114.851 17.96 113.351 17 112.171 16.38L111.291 17.74ZM124.151 23.14V24.52H133.371V23.14H124.151ZM123.651 13.54V14.96H133.651V13.54H123.651ZM127.831 11.9V26.46H129.551V11.9H127.831ZM123.591 26.38L123.831 28C126.411 27.74 130.031 27.36 133.431 26.96L133.411 25.5C129.831 25.86 126.051 26.18 123.591 26.38ZM125.751 19.64H131.711V20.86H125.751V19.64ZM125.751 17.26H131.711V18.46H125.751V17.26ZM124.211 16.02V22.1H133.291V16.02H124.211ZM132.471 10.28C130.331 10.76 126.771 11.12 123.791 11.26C123.971 11.64 124.151 12.24 124.231 12.64C127.231 12.56 130.911 12.24 133.351 11.72L132.471 10.28ZM133.551 14.74V16.48H140.651V14.74H133.551ZM139.891 14.74V15.16C139.711 23.1 139.511 25.96 139.031 26.58C138.851 26.84 138.651 26.9 138.331 26.9C137.951 26.9 137.111 26.88 136.191 26.8C136.491 27.32 136.691 28.1 136.731 28.62C137.671 28.66 138.611 28.66 139.211 28.58C139.831 28.48 140.271 28.3 140.651 27.7C141.311 26.84 141.491 23.98 141.711 15.62C141.711 15.4 141.711 14.74 141.711 14.74H139.891ZM135.751 10.42C135.731 18.16 135.891 24.18 131.471 27.42C131.911 27.74 132.551 28.38 132.831 28.82C137.531 25.22 137.551 18.62 137.571 10.42H135.751ZM146.411 25.68V27.48H160.891V25.68H146.411ZM144.751 11.38V13.16H162.591V11.38H144.751ZM145.371 14.86V28.68H147.211V14.86H145.371ZM160.151 14.86V28.64H161.991V14.86H160.151ZM152.631 11.92V15.88H154.551V11.92H152.631ZM152.771 15.82V23.54H154.411V15.82H152.771ZM150.411 20.38H156.791V22.6H150.411V20.38ZM150.411 16.68H156.791V18.9H150.411V16.68ZM148.831 15.12V24.18H158.431V15.12H148.831ZM198.698 4.536C198.698 3.416 199.594 2.52 200.682 2.52C201.77 2.52 202.698 3.416 202.698 4.536C202.698 5.624 201.77 6.52 200.682 6.52C199.594 6.52 198.698 5.624 198.698 4.536ZM197.002 4.536C197.002 6.552 198.634 8.216 200.682 8.216C202.73 8.216 204.394 6.552 204.394 4.536C204.394 2.488 202.73 0.823999 200.682 0.823999C198.634 0.823999 197.002 2.488 197.002 4.536ZM183.53 2.776H179.786C179.914 3.608 180.01 4.952 180.01 5.688C180.01 7.512 180.01 19.864 180.01 23.224C180.01 25.88 181.482 27.192 184.074 27.672C185.418 27.896 187.338 27.992 189.322 27.992C192.81 27.992 197.642 27.768 200.522 27.32V23.64C197.866 24.344 192.842 24.696 189.482 24.696C187.978 24.696 186.474 24.632 185.482 24.472C183.978 24.184 183.306 23.8 183.306 22.264C183.306 19.896 183.306 7.512 183.306 5.688C183.306 4.792 183.402 3.608 183.53 2.776ZM181.834 12.76L181.866 16.088C185.994 15.096 192.298 13.208 196.17 11.672C197.162 11.288 198.442 10.744 199.498 10.296L198.122 7.096C197.066 7.736 196.042 8.216 195.018 8.664C191.466 10.168 185.802 11.896 181.834 12.76ZM237.034 7.064L234.41 5.432C233.802 5.656 232.938 5.784 232.01 5.784C231.018 5.784 223.626 5.784 222.282 5.784L221.066 8.664H232.458C231.85 11.352 229.93 15.352 227.594 18.104C224.714 21.4 220.938 24.248 214.762 26.072L217.706 28.728C223.722 26.456 227.562 23.512 230.538 19.896C233.386 16.376 235.306 12.088 236.17 9.016C236.362 8.376 236.746 7.576 237.034 7.064ZM226.442 2.104L222.73 0.887999C222.506 1.848 221.93 3.128 221.546 3.8C220.074 6.616 217.066 11.032 211.53 14.392L214.346 16.472C219.242 13.176 222.794 8.632 224.81 4.952C225.13 4.312 225.834 3.064 226.442 2.104ZM258.817 26.328L260.961 28.088C261.217 27.864 261.569 27.576 262.177 27.256C265.825 25.432 270.337 22.072 273.057 18.456L271.137 15.672C268.801 19.064 265.217 21.816 262.401 23.064C262.401 21.656 262.401 7.608 262.401 5.368C262.401 4.056 262.561 2.968 262.593 2.808H258.849C258.881 2.968 259.073 4.024 259.073 5.336C259.073 7.608 259.073 22.712 259.073 24.28C259.073 25.016 258.945 25.784 258.817 26.328ZM244.097 26.04L247.169 28.056C249.857 25.752 251.905 22.616 252.865 19.128C253.729 15.896 253.825 9.08 253.825 5.432C253.825 4.312 253.985 3.16 254.017 2.872H250.305C250.465 3.608 250.561 4.376 250.561 5.464C250.561 9.176 250.529 15.416 249.601 18.264C248.673 21.208 246.849 24.088 244.097 26.04ZM302.977 5.496L300.929 3.928C300.353 4.12 299.329 4.248 298.145 4.248C296.833 4.248 287.681 4.248 286.241 4.248C285.281 4.248 283.393 4.152 282.785 4.056V7.672C283.265 7.64 285.025 7.48 286.241 7.48C287.457 7.48 296.801 7.48 298.017 7.48C297.249 9.976 295.073 13.496 292.929 15.928C289.761 19.448 284.929 23.32 279.777 25.272L282.369 27.992C287.393 25.656 292.065 21.784 295.649 17.72C298.337 14.68 300.769 10.232 302.049 7.128C302.273 6.616 302.753 5.784 302.977 5.496ZM296.065 15.64L293.729 17.944C297.153 21.016 300.801 24.984 303.137 28.12L305.985 25.656C303.841 23.032 299.457 18.424 296.065 15.64Z" fill="#FF8C8C"/>
</svg>
