<svg width="40" height="40" viewBox="0 0 40 40" fill="none" xmlns="http://www.w3.org/2000/svg">
<g clip-path="url(#clip0_2_4)">
<rect width="40" height="40" fill="#FFAFAF"/>
<path d="M2.72 14.48V19.56H15.88V14.48H2.72ZM8.68 21.16V33.16C8.68 33.6 8.52 33.72 7.96 33.76C7.4 33.76 5.48 33.76 4.04 33.68C4.76 35.12 5.56 37.36 5.8 38.96C8.48 38.96 10.6 38.88 12.28 38.08C14 37.24 14.44 35.84 14.44 33.32V21.16H8.68ZM0.96 24.12L1.48 29.64C6.88 29.2 14.4 28.68 21.32 28.04V22.8C14.16 23.32 6.28 23.84 0.96 24.12ZM14.36 14.48V15.56C13.4 17.2 11.2 20.12 9.36 21.76C10.08 22.44 11.56 23.92 12.16 24.84C15.12 22.8 18.2 19.72 20.64 17.24L17.12 14.16L15.88 14.48H14.36ZM18.24 0.919998C13.72 2 7.12 2.8 1.08 3.16C1.68 4.44 2.36 6.52 2.52 7.88C8.72 7.64 15.92 7 21.64 5.72L18.24 0.919998ZM22.88 1.72V30.52C22.88 36.72 24.24 38.72 28.96 38.72C29.8 38.72 32.08 38.72 32.96 38.72C37.44 38.72 38.8 35.6 39.28 27.92C37.72 27.52 35.24 26.32 33.84 25.24C33.64 31.52 33.44 33.16 32.36 33.16C31.92 33.16 30.44 33.16 30.04 33.16C29.04 33.16 28.92 32.84 28.92 30.56V1.72H22.88ZM1.12 9.08C1.84 10.84 2.6 13.24 2.8 14.76L7.32 13.48C7 11.96 6.24 9.68 5.44 7.96L1.12 9.08ZM7.84 8.12C8.28 9.92 8.68 12.28 8.68 13.8L13.52 13C13.44 11.48 13 9.2 12.44 7.48L7.84 8.12ZM16.96 6.72C16.24 8.92 14.88 11.84 13.72 13.72L18.12 15.44C19.36 13.76 20.84 11.16 22.28 8.64L16.96 6.72Z" fill="white"/>
</g>
<defs>
<clipPath id="clip0_2_4">
<rect width="40" height="40" fill="white"/>
</clipPath>
</defs>
</svg>
